<svg xmlns="http://www.w3.org/2000/svg" xmlns:xlink="http://www.w3.org/1999/xlink" width="500" zoomAndPan="magnify" viewBox="0 0 375 374.999991" height="500" preserveAspectRatio="xMidYMid meet" version="1.0"><defs><g/><clipPath id="cb1b86eefd"><rect x="0" width="98" y="0" height="183"/></clipPath><clipPath id="20b0fb447a"><rect x="0" width="44" y="0" height="210"/></clipPath><clipPath id="db4a293249"><path d="M 163.351562 176.101562 L 169.453125 176.101562 L 169.453125 193.050781 L 163.351562 193.050781 Z M 163.351562 176.101562 " clip-rule="nonzero"/></clipPath><clipPath id="41f2c08aa8"><path d="M 0.351562 0.101562 L 6.453125 0.101562 L 6.453125 17.050781 L 0.351562 17.050781 Z M 0.351562 0.101562 " clip-rule="nonzero"/></clipPath><clipPath id="1060ceda71"><rect x="0" width="7" y="0" height="18"/></clipPath><clipPath id="cd828473a3"><path d="M 170.542969 204.308594 L 187.492188 204.308594 L 187.492188 210.414062 L 170.542969 210.414062 Z M 170.542969 204.308594 " clip-rule="nonzero"/></clipPath><clipPath id="23d905f973"><path d="M 0.542969 0.308594 L 17.492188 0.308594 L 17.492188 6.414062 L 0.542969 6.414062 Z M 0.542969 0.308594 " clip-rule="nonzero"/></clipPath><clipPath id="4be0e97728"><rect x="0" width="18" y="0" height="7"/></clipPath></defs><rect x="-37.5" width="450" fill="#ffffff" y="-37.499999" height="449.999989" fill-opacity="1"/><rect x="-37.5" width="450" fill="#ffffff" y="-37.499999" height="449.999989" fill-opacity="1"/><g transform="matrix(1, 0, 0, 1, 163, 123)"><g clip-path="url(#cb1b86eefd)"><g fill="#000000" fill-opacity="1"><g transform="translate(0.349994, 144.813038)"><g><path d="M 14.375 0 L 14.375 -109.796875 L 59.53125 -109.796875 C 64.175781 -109.796875 68.429688 -108.816406 72.296875 -106.859375 C 76.160156 -104.898438 79.535156 -102.296875 82.421875 -99.046875 C 85.304688 -95.796875 87.546875 -92.160156 89.140625 -88.140625 C 90.742188 -84.117188 91.546875 -80 91.546875 -75.78125 C 91.546875 -69.894531 90.226562 -64.347656 87.59375 -59.140625 C 84.96875 -53.941406 81.359375 -49.691406 76.765625 -46.390625 C 72.179688 -43.085938 66.75 -41.4375 60.46875 -41.4375 L 22.265625 -41.4375 L 22.265625 0 Z M 22.265625 -48.71875 L 60.15625 -48.71875 C 65 -48.71875 69.171875 -50.003906 72.671875 -52.578125 C 76.179688 -55.148438 78.863281 -58.5 80.71875 -62.625 C 82.570312 -66.75 83.5 -71.132812 83.5 -75.78125 C 83.5 -80.625 82.390625 -85.082031 80.171875 -89.15625 C 77.960938 -93.226562 75.023438 -96.5 71.359375 -98.96875 C 67.703125 -101.445312 63.660156 -102.6875 59.234375 -102.6875 L 22.265625 -102.6875 Z M 22.265625 -48.71875 "/></g></g></g></g></g><g transform="matrix(1, 0, 0, 1, 128, 71)"><g clip-path="url(#20b0fb447a)"><g fill="#ffffff" fill-opacity="1"><g transform="translate(-3.5483, 174.340054)"><g><path d="M 16.53125 0 L 16.53125 -126.140625 L 25.578125 -126.140625 L 25.578125 0 Z M 16.53125 0 "/></g></g></g><g fill="#000000" fill-opacity="1"><g transform="translate(0.651085, 166.764153)"><g><path d="M 16.53125 0 L 16.53125 -126.140625 L 25.578125 -126.140625 L 25.578125 0 Z M 16.53125 0 "/></g></g></g></g></g><g clip-path="url(#db4a293249)"><g transform="matrix(1, 0, 0, 1, 163, 176)"><g clip-path="url(#1060ceda71)"><g clip-path="url(#41f2c08aa8)"><path fill="#ffffff" d="M 0.351562 0.101562 L 6.453125 0.101562 L 6.453125 17.054688 L 0.351562 17.054688 Z M 0.351562 0.101562 " fill-opacity="1" fill-rule="nonzero"/></g></g></g></g><g clip-path="url(#cd828473a3)"><g transform="matrix(1, 0, 0, 1, 170, 204)"><g clip-path="url(#4be0e97728)"><g clip-path="url(#23d905f973)"><path fill="#ffffff" d="M 17.492188 0.308594 L 17.492188 6.414062 L 0.539062 6.414062 L 0.539062 0.308594 Z M 17.492188 0.308594 " fill-opacity="1" fill-rule="nonzero"/></g></g></g></g></svg>