<svg xmlns="http://www.w3.org/2000/svg" xmlns:xlink="http://www.w3.org/1999/xlink" width="500" zoomAndPan="magnify" viewBox="0 0 375 374.999991" height="500" preserveAspectRatio="xMidYMid meet" version="1.0"><defs><g/><clipPath id="43d2896351"><path d="M 67 38 L 309 38 L 309 193.5 L 67 193.5 Z M 67 38 " clip-rule="nonzero"/></clipPath></defs><rect x="-37.5" width="450" fill="#ffffff" y="-37.499999" height="449.999989" fill-opacity="1"/><rect x="-37.5" width="450" fill="#ffffff" y="-37.499999" height="449.999989" fill-opacity="1"/><g clip-path="url(#43d2896351)"><path fill="#000000" d="M 119.191406 167.707031 C 116.992188 167.707031 114.796875 166.871094 113.117188 165.1875 L 70.167969 122.21875 C 66.8125 118.863281 66.8125 113.425781 70.167969 110.070312 L 113.117188 67.101562 C 116.472656 63.742188 121.910156 63.742188 125.265625 67.101562 C 128.621094 70.457031 128.621094 75.894531 125.265625 79.25 L 88.386719 116.144531 L 125.265625 153.039062 C 128.621094 156.394531 128.621094 161.832031 125.265625 165.1875 C 123.585938 166.871094 121.390625 167.707031 119.191406 167.707031 Z M 162.144531 193.488281 C 161.144531 193.488281 160.121094 193.3125 159.128906 192.9375 C 154.6875 191.269531 152.433594 186.316406 154.097656 181.875 L 205.640625 44.375 C 207.3125 39.925781 212.261719 37.679688 216.703125 39.347656 C 221.144531 41.011719 223.398438 45.96875 221.730469 50.410156 L 170.1875 187.910156 C 168.890625 191.363281 165.621094 193.488281 162.144531 193.488281 Z M 256.636719 167.707031 C 254.4375 167.707031 252.246094 166.871094 250.566406 165.1875 C 247.210938 161.832031 247.210938 156.394531 250.566406 153.039062 L 287.445312 116.144531 L 250.566406 79.25 C 247.210938 75.894531 247.210938 70.457031 250.566406 67.101562 C 253.917969 63.742188 259.355469 63.742188 262.710938 67.101562 L 305.664062 110.070312 C 309.019531 113.425781 309.019531 118.863281 305.664062 122.21875 L 262.710938 165.1875 C 261.03125 166.871094 258.835938 167.707031 256.636719 167.707031 Z M 256.636719 167.707031 " fill-opacity="1" fill-rule="nonzero"/></g><g fill="#000000" fill-opacity="1"><g transform="translate(86.84129, 292.853976)"><g><path d="M 6.34375 0.09375 C 4.882812 0.09375 3.75 -0.320312 2.9375 -1.15625 C 2.132812 -1.988281 1.734375 -3.195312 1.734375 -4.78125 L 1.734375 -11.203125 L 2.90625 -11.203125 L 2.90625 -4.828125 C 2.90625 -3.523438 3.195312 -2.550781 3.78125 -1.90625 C 4.375 -1.269531 5.226562 -0.953125 6.34375 -0.953125 C 7.457031 -0.953125 8.304688 -1.269531 8.890625 -1.90625 C 9.484375 -2.550781 9.78125 -3.523438 9.78125 -4.828125 L 9.78125 -11.203125 L 10.921875 -11.203125 L 10.921875 -4.78125 C 10.921875 -3.195312 10.519531 -1.988281 9.71875 -1.15625 C 8.914062 -0.320312 7.789062 0.09375 6.34375 0.09375 Z M 6.34375 0.09375 "/></g></g></g><g fill="#000000" fill-opacity="1"><g transform="translate(106.2462, 292.853976)"><g><path d="M 11.1875 -11.203125 L 11.1875 0 L 10.203125 0 L 3.015625 -9.09375 L 3.015625 0 L 1.828125 0 L 1.828125 -11.203125 L 2.796875 -11.203125 L 10.015625 -2.109375 L 10.015625 -11.203125 Z M 11.1875 -11.203125 "/></g></g></g><g fill="#000000" fill-opacity="1"><g transform="translate(125.987028, 292.853976)"><g><path d="M 1.828125 -11.203125 L 3.015625 -11.203125 L 3.015625 0 L 1.828125 0 Z M 1.828125 -11.203125 "/></g></g></g><g fill="#000000" fill-opacity="1"><g transform="translate(137.553822, 292.853976)"><g><path d="M 11.140625 -11.203125 L 6.171875 0 L 5.015625 0 L 0.046875 -11.203125 L 1.328125 -11.203125 L 5.609375 -1.46875 L 9.9375 -11.203125 Z M 11.140625 -11.203125 "/></g></g></g><g fill="#000000" fill-opacity="1"><g transform="translate(155.455093, 292.853976)"><g><path d="M 9.75 -1.03125 L 9.75 0 L 1.828125 0 L 1.828125 -11.203125 L 9.5 -11.203125 L 9.5 -10.171875 L 3.015625 -10.171875 L 3.015625 -6.1875 L 8.796875 -6.1875 L 8.796875 -5.1875 L 3.015625 -5.1875 L 3.015625 -1.03125 Z M 9.75 -1.03125 "/></g></g></g><g fill="#000000" fill-opacity="1"><g transform="translate(172.892477, 292.853976)"><g><path d="M 9.46875 0 L 6.90625 -3.59375 C 6.625 -3.5625 6.328125 -3.546875 6.015625 -3.546875 L 3.015625 -3.546875 L 3.015625 0 L 1.828125 0 L 1.828125 -11.203125 L 6.015625 -11.203125 C 7.441406 -11.203125 8.5625 -10.859375 9.375 -10.171875 C 10.1875 -9.492188 10.59375 -8.554688 10.59375 -7.359375 C 10.59375 -6.484375 10.367188 -5.742188 9.921875 -5.140625 C 9.484375 -4.535156 8.851562 -4.101562 8.03125 -3.84375 L 10.765625 0 Z M 5.984375 -4.5625 C 7.085938 -4.5625 7.929688 -4.804688 8.515625 -5.296875 C 9.109375 -5.785156 9.40625 -6.472656 9.40625 -7.359375 C 9.40625 -8.265625 9.109375 -8.957031 8.515625 -9.4375 C 7.929688 -9.925781 7.085938 -10.171875 5.984375 -10.171875 L 3.015625 -10.171875 L 3.015625 -4.5625 Z M 5.984375 -4.5625 "/></g></g></g><g fill="#000000" fill-opacity="1"><g transform="translate(191.193661, 292.853976)"><g><path d="M 4.90625 0.09375 C 4.070312 0.09375 3.273438 -0.0351562 2.515625 -0.296875 C 1.753906 -0.566406 1.164062 -0.921875 0.75 -1.359375 L 1.21875 -2.265625 C 1.625 -1.859375 2.160156 -1.53125 2.828125 -1.28125 C 3.503906 -1.03125 4.195312 -0.90625 4.90625 -0.90625 C 5.914062 -0.90625 6.671875 -1.085938 7.171875 -1.453125 C 7.671875 -1.828125 7.921875 -2.304688 7.921875 -2.890625 C 7.921875 -3.335938 7.785156 -3.695312 7.515625 -3.96875 C 7.242188 -4.238281 6.910156 -4.441406 6.515625 -4.578125 C 6.117188 -4.722656 5.566406 -4.882812 4.859375 -5.0625 C 4.015625 -5.269531 3.34375 -5.472656 2.84375 -5.671875 C 2.34375 -5.867188 1.914062 -6.171875 1.5625 -6.578125 C 1.207031 -6.984375 1.03125 -7.53125 1.03125 -8.21875 C 1.03125 -8.789062 1.175781 -9.304688 1.46875 -9.765625 C 1.769531 -10.234375 2.226562 -10.601562 2.84375 -10.875 C 3.46875 -11.15625 4.238281 -11.296875 5.15625 -11.296875 C 5.789062 -11.296875 6.414062 -11.207031 7.03125 -11.03125 C 7.644531 -10.851562 8.175781 -10.609375 8.625 -10.296875 L 8.21875 -9.359375 C 7.75 -9.671875 7.25 -9.898438 6.71875 -10.046875 C 6.1875 -10.203125 5.664062 -10.28125 5.15625 -10.28125 C 4.175781 -10.28125 3.4375 -10.09375 2.9375 -9.71875 C 2.4375 -9.34375 2.1875 -8.851562 2.1875 -8.25 C 2.1875 -7.800781 2.320312 -7.441406 2.59375 -7.171875 C 2.875 -6.898438 3.21875 -6.691406 3.625 -6.546875 C 4.03125 -6.410156 4.582031 -6.253906 5.28125 -6.078125 C 6.101562 -5.878906 6.765625 -5.679688 7.265625 -5.484375 C 7.773438 -5.285156 8.207031 -4.984375 8.5625 -4.578125 C 8.914062 -4.179688 9.09375 -3.640625 9.09375 -2.953125 C 9.09375 -2.390625 8.9375 -1.875 8.625 -1.40625 C 8.320312 -0.945312 7.851562 -0.582031 7.21875 -0.3125 C 6.59375 -0.0390625 5.820312 0.09375 4.90625 0.09375 Z M 4.90625 0.09375 "/></g></g></g><g fill="#000000" fill-opacity="1"><g transform="translate(207.767257, 292.853976)"><g><path d="M 1.828125 -11.203125 L 3.015625 -11.203125 L 3.015625 0 L 1.828125 0 Z M 1.828125 -11.203125 "/></g></g></g><g fill="#000000" fill-opacity="1"><g transform="translate(219.334052, 292.853976)"><g><path d="M 1.828125 -11.203125 L 6.390625 -11.203125 C 7.566406 -11.203125 8.609375 -10.960938 9.515625 -10.484375 C 10.421875 -10.015625 11.125 -9.351562 11.625 -8.5 C 12.132812 -7.65625 12.390625 -6.6875 12.390625 -5.59375 C 12.390625 -4.507812 12.132812 -3.539062 11.625 -2.6875 C 11.125 -1.84375 10.421875 -1.179688 9.515625 -0.703125 C 8.609375 -0.234375 7.566406 0 6.390625 0 L 1.828125 0 Z M 6.3125 -1.03125 C 7.300781 -1.03125 8.160156 -1.222656 8.890625 -1.609375 C 9.628906 -1.992188 10.203125 -2.53125 10.609375 -3.21875 C 11.015625 -3.90625 11.21875 -4.695312 11.21875 -5.59375 C 11.21875 -6.488281 11.015625 -7.28125 10.609375 -7.96875 C 10.203125 -8.664062 9.628906 -9.207031 8.890625 -9.59375 C 8.160156 -9.976562 7.300781 -10.171875 6.3125 -10.171875 L 3.015625 -10.171875 L 3.015625 -1.03125 Z M 6.3125 -1.03125 "/></g></g></g><g fill="#000000" fill-opacity="1"><g transform="translate(239.28283, 292.853976)"><g><path d="M 8.84375 -2.984375 L 2.609375 -2.984375 L 1.265625 0 L 0.03125 0 L 5.15625 -11.203125 L 6.3125 -11.203125 L 11.4375 0 L 10.1875 0 Z M 8.421875 -3.953125 L 5.734375 -9.96875 L 3.046875 -3.953125 Z M 8.421875 -3.953125 "/></g></g></g><g fill="#000000" fill-opacity="1"><g transform="translate(257.488033, 292.853976)"><g><path d="M 1.828125 -11.203125 L 6.390625 -11.203125 C 7.566406 -11.203125 8.609375 -10.960938 9.515625 -10.484375 C 10.421875 -10.015625 11.125 -9.351562 11.625 -8.5 C 12.132812 -7.65625 12.390625 -6.6875 12.390625 -5.59375 C 12.390625 -4.507812 12.132812 -3.539062 11.625 -2.6875 C 11.125 -1.84375 10.421875 -1.179688 9.515625 -0.703125 C 8.609375 -0.234375 7.566406 0 6.390625 0 L 1.828125 0 Z M 6.3125 -1.03125 C 7.300781 -1.03125 8.160156 -1.222656 8.890625 -1.609375 C 9.628906 -1.992188 10.203125 -2.53125 10.609375 -3.21875 C 11.015625 -3.90625 11.21875 -4.695312 11.21875 -5.59375 C 11.21875 -6.488281 11.015625 -7.28125 10.609375 -7.96875 C 10.203125 -8.664062 9.628906 -9.207031 8.890625 -9.59375 C 8.160156 -9.976562 7.300781 -10.171875 6.3125 -10.171875 L 3.015625 -10.171875 L 3.015625 -1.03125 Z M 6.3125 -1.03125 "/></g></g></g><g fill="#000000" fill-opacity="1"><g transform="translate(277.436811, 292.853976)"><g><path d="M 9.75 -1.03125 L 9.75 0 L 1.828125 0 L 1.828125 -11.203125 L 9.5 -11.203125 L 9.5 -10.171875 L 3.015625 -10.171875 L 3.015625 -6.1875 L 8.796875 -6.1875 L 8.796875 -5.1875 L 3.015625 -5.1875 L 3.015625 -1.03125 Z M 9.75 -1.03125 "/></g></g></g><g fill="#000000" fill-opacity="1"><g transform="translate(56.328919, 244.633974)"><g><path d="M 8.890625 -1.859375 L 12.234375 -1.859375 L 12.234375 0 L 1.984375 0 L 1.984375 -1.859375 L 5.328125 -1.859375 L 5.328125 -24.359375 L 1.984375 -24.359375 L 1.984375 -26.25 L 12.234375 -26.25 L 12.234375 -24.359375 L 8.890625 -24.359375 Z M 8.890625 -1.859375 "/></g></g><g transform="translate(70.549621, 244.633974)"><g><path d="M 1.765625 0 L 1.765625 -1.859375 L 5.296875 -1.859375 L 5.296875 -24.359375 L 1.765625 -24.359375 L 1.765625 -26.25 L 8.484375 -26.25 L 24.21875 -5.53125 L 24.21875 -24.359375 L 20.703125 -24.359375 L 20.703125 -26.25 L 29.921875 -26.25 L 29.921875 -24.359375 L 26.390625 -24.359375 L 26.390625 0.515625 L 24.265625 0.515625 L 7.453125 -21.609375 L 7.453125 -1.859375 L 10.984375 -1.859375 L 10.984375 0 Z M 1.765625 0 "/></g></g><g transform="translate(102.049619, 244.633974)"><g><path d="M 6.875 0 L 6.875 -1.859375 L 10.234375 -1.859375 L 10.234375 -24.15625 L 2.515625 -24.15625 L 2.515625 -20.0625 L 0.359375 -20.0625 L 0.359375 -26.25 L 23.65625 -26.25 L 23.65625 -20.0625 L 21.5 -20.0625 L 21.5 -24.15625 L 13.78125 -24.15625 L 13.78125 -1.859375 L 17.140625 -1.859375 L 17.140625 0 Z M 6.875 0 "/></g></g><g transform="translate(126.061336, 244.633974)"><g><path d="M 1.984375 0 L 1.984375 -1.859375 L 5.328125 -1.859375 L 5.328125 -24.359375 L 1.984375 -24.359375 L 1.984375 -26.25 L 23.109375 -26.25 L 23.109375 -20.40625 L 20.953125 -20.40625 L 20.953125 -24.078125 L 8.890625 -24.078125 L 8.890625 -15.296875 L 17.484375 -15.296875 L 17.484375 -18.578125 L 19.65625 -18.578125 L 19.65625 -9.859375 L 17.484375 -9.859375 L 17.484375 -13.15625 L 8.890625 -13.15625 L 8.890625 -2.15625 L 21.234375 -2.15625 L 21.234375 -5.84375 L 23.390625 -5.84375 L 23.390625 0 Z M 1.984375 0 "/></g></g><g transform="translate(152.340631, 244.633974)"><g><path d="M 1.984375 0 L 1.984375 -1.859375 L 5.328125 -1.859375 L 5.328125 -24.359375 L 1.984375 -24.359375 L 1.984375 -26.25 L 12.234375 -26.25 L 12.234375 -24.359375 L 8.890625 -24.359375 L 8.890625 -2.15625 L 20.890625 -2.15625 L 20.890625 -6.5625 L 23.046875 -6.5625 L 23.046875 0 Z M 1.984375 0 "/></g></g><g transform="translate(176.24688, 244.633974)"><g><path d="M 1.984375 0 L 1.984375 -1.859375 L 5.328125 -1.859375 L 5.328125 -24.359375 L 1.984375 -24.359375 L 1.984375 -26.25 L 12.234375 -26.25 L 12.234375 -24.359375 L 8.890625 -24.359375 L 8.890625 -2.15625 L 20.890625 -2.15625 L 20.890625 -6.5625 L 23.046875 -6.5625 L 23.046875 0 Z M 1.984375 0 "/></g></g><g transform="translate(200.153128, 244.633974)"><g><path d="M 8.890625 -1.859375 L 12.234375 -1.859375 L 12.234375 0 L 1.984375 0 L 1.984375 -1.859375 L 5.328125 -1.859375 L 5.328125 -24.359375 L 1.984375 -24.359375 L 1.984375 -26.25 L 12.234375 -26.25 L 12.234375 -24.359375 L 8.890625 -24.359375 Z M 8.890625 -1.859375 "/></g></g><g transform="translate(214.37383, 244.633974)"><g><path d="M 8.890625 -13.359375 L 13.53125 -13.359375 C 15.28125 -13.359375 16.609375 -13.828125 17.515625 -14.765625 C 18.429688 -15.710938 18.890625 -17.078125 18.890625 -18.859375 C 18.890625 -20.648438 18.429688 -22.015625 17.515625 -22.953125 C 16.609375 -23.890625 15.28125 -24.359375 13.53125 -24.359375 L 8.890625 -24.359375 Z M 1.984375 0 L 1.984375 -1.859375 L 5.328125 -1.859375 L 5.328125 -24.359375 L 1.984375 -24.359375 L 1.984375 -26.25 L 14.390625 -26.25 C 17.015625 -26.25 19.09375 -25.582031 20.625 -24.25 C 22.164062 -22.914062 22.9375 -21.117188 22.9375 -18.859375 C 22.9375 -16.609375 22.164062 -14.816406 20.625 -13.484375 C 19.09375 -12.148438 17.015625 -11.484375 14.390625 -11.484375 L 8.890625 -11.484375 L 8.890625 -1.859375 L 12.953125 -1.859375 L 12.953125 0 Z M 1.984375 0 "/></g></g><g transform="translate(238.596485, 244.633974)"><g><path d="M 14.765625 -1.375 C 17.640625 -1.375 19.804688 -2.359375 21.265625 -4.328125 C 22.734375 -6.304688 23.46875 -9.226562 23.46875 -13.09375 C 23.46875 -16.976562 22.734375 -19.90625 21.265625 -21.875 C 19.804688 -23.851562 17.640625 -24.84375 14.765625 -24.84375 C 11.878906 -24.84375 9.703125 -23.851562 8.234375 -21.875 C 6.773438 -19.90625 6.046875 -16.976562 6.046875 -13.09375 C 6.046875 -9.226562 6.773438 -6.304688 8.234375 -4.328125 C 9.703125 -2.359375 11.878906 -1.375 14.765625 -1.375 Z M 14.765625 0.515625 C 12.984375 0.515625 11.34375 0.222656 9.84375 -0.359375 C 8.351562 -0.953125 7.039062 -1.816406 5.90625 -2.953125 C 4.59375 -4.265625 3.613281 -5.753906 2.96875 -7.421875 C 2.332031 -9.085938 2.015625 -10.976562 2.015625 -13.09375 C 2.015625 -15.21875 2.332031 -17.113281 2.96875 -18.78125 C 3.613281 -20.445312 4.59375 -21.9375 5.90625 -23.25 C 7.050781 -24.40625 8.363281 -25.269531 9.84375 -25.84375 C 11.320312 -26.425781 12.960938 -26.71875 14.765625 -26.71875 C 18.578125 -26.71875 21.65625 -25.46875 24 -22.96875 C 26.34375 -20.476562 27.515625 -17.1875 27.515625 -13.09375 C 27.515625 -11 27.191406 -9.109375 26.546875 -7.421875 C 25.898438 -5.742188 24.921875 -4.253906 23.609375 -2.953125 C 22.460938 -1.804688 21.148438 -0.941406 19.671875 -0.359375 C 18.191406 0.222656 16.554688 0.515625 14.765625 0.515625 Z M 14.765625 0.515625 "/></g></g><g transform="translate(268.110155, 244.633974)"><g><path d="M 17.25 -13.03125 C 18.0625 -12.800781 18.765625 -12.421875 19.359375 -11.890625 C 19.953125 -11.359375 20.484375 -10.613281 20.953125 -9.65625 L 24.765625 -1.859375 L 27.96875 -1.859375 L 27.96875 0 L 21.78125 0 L 17.6875 -8.34375 C 16.894531 -9.96875 16.171875 -11.015625 15.515625 -11.484375 C 14.859375 -11.960938 13.957031 -12.203125 12.8125 -12.203125 L 8.890625 -12.203125 L 8.890625 -1.859375 L 12.609375 -1.859375 L 12.609375 0 L 1.984375 0 L 1.984375 -1.859375 L 5.328125 -1.859375 L 5.328125 -24.359375 L 1.984375 -24.359375 L 1.984375 -26.25 L 15.296875 -26.25 C 17.847656 -26.25 19.816406 -25.640625 21.203125 -24.421875 C 22.597656 -23.203125 23.296875 -21.472656 23.296875 -19.234375 C 23.296875 -17.429688 22.785156 -16.007812 21.765625 -14.96875 C 20.753906 -13.925781 19.25 -13.28125 17.25 -13.03125 Z M 8.890625 -14.078125 L 14.078125 -14.078125 C 15.847656 -14.078125 17.15625 -14.492188 18 -15.328125 C 18.84375 -16.171875 19.265625 -17.472656 19.265625 -19.234375 C 19.265625 -20.992188 18.84375 -22.285156 18 -23.109375 C 17.15625 -23.941406 15.847656 -24.359375 14.078125 -24.359375 L 8.890625 -24.359375 Z M 8.890625 -14.078125 "/></g></g><g transform="translate(295.215622, 244.633974)"><g><path d="M 6.875 0 L 6.875 -1.859375 L 10.234375 -1.859375 L 10.234375 -24.15625 L 2.515625 -24.15625 L 2.515625 -20.0625 L 0.359375 -20.0625 L 0.359375 -26.25 L 23.65625 -26.25 L 23.65625 -20.0625 L 21.5 -20.0625 L 21.5 -24.15625 L 13.78125 -24.15625 L 13.78125 -1.859375 L 17.140625 -1.859375 L 17.140625 0 Z M 6.875 0 "/></g></g></g></svg>